# xmcd
#
# Track frame offsets:
#	150
#	10040
#	22988
#	38485
#	52409
#	66820
#	79516
#	92202
#	106296
#	127781
#	142702
#	157782
#
# Disc length: 2265 seconds
#
# Revision: 1
# Processed by: cddbd v1.5.2PL0 Copyright (c) Steve Scherf et al.
# Submitted via: audiograbber 1.83.01
#
DISCID=8208d70c
DTITLE=Martin and Eli's Musik - Kære Lille Anna
DYEAR=2007
DGENRE=Dansktop
TTITLE0=Kære lille Anna (2007)
TTITLE1=Du siger jeg skal gi' dig en chance (2007)
TTITLE2=Syng, syng og vær glad (Medley) (2007)
TTITLE3=Apache (2007)
TTITLE4=Jeg er zigøjner (2007)
TTITLE5=En lille ring af guld (2007)
TTITLE6=Beatels Hår (2007)
TTITLE7=Peter lå i telt (2007)
TTITLE8=Himmelhunden (2007)
TTITLE9=Riders in the sky (2007)
TTITLE10=Kun for sjov (2007)
TTITLE11=De gamle bukser (2007)
EXTD=
EXTT0=
EXTT1=
EXTT2=
EXTT3=
EXTT4=
EXTT5=
EXTT6=
EXTT7=
EXTT8=
EXTT9=
EXTT10=
EXTT11=
PLAYORDER=
